<svg xmlns="http://www.w3.org/2000/svg" height="800" width="1200" viewBox="-268.16235 -100 2324.0737 600"><g fill-rule="evenodd" fill="none"><path d="M3.231 164h285.393a3 3 0 002.723-1.742l24.972-54.04a3 3 0 00-2.724-4.258l-289.089.035C58.483 42.02 124.334 0 200 0c110.457 0 200 89.543 200 200s-89.543 200-200 200S0 310.457 0 200c0-12.29 1.109-24.322 3.231-36zM126 328a4 4 0 004 4h5.175l63.497-80h49.226a3 3 0 002.723-1.739l25-53.97a3 3 0 00-2.721-4.26L126 192z" fill="#FF9800"/><path d="M500.748 124.732c0-1.216.418-2.242 1.254-3.078.836-.836 1.862-1.254 3.078-1.254h104.2a3 3 0 012.723 4.258l-9.601 20.78a4 4 0 01-3.631 2.322h-68.383v42.864h46.436a3 3 0 012.723 4.259l-9.607 20.78a4 4 0 01-3.63 2.321h-35.922v57.684c0 1.216-.418 2.242-1.254 3.078-.836.836-1.862 1.254-3.078 1.254H505.08c-1.216 0-2.242-.418-3.078-1.254-.836-.836-1.254-1.862-1.254-3.078zm212.34 100.776l-22.8-50.16h-.684l-22.344 50.16zM618.468 280c-1.672 0-2.926-.608-3.762-1.824-.836-1.216-.874-2.584-.114-4.104L685.5 120.628c.912-1.672 2.204-2.508 3.876-2.508h2.28c1.216 0 2.09.228 2.622.684.532.456.95 1.064 1.254 1.824l70.224 153.444c.76 1.52.722 2.888-.114 4.104-.836 1.216-2.09 1.824-3.762 1.824h-19.836c-1.672 0-3.002-.342-3.99-1.026-.988-.684-1.862-1.862-2.622-3.534l-11.172-24.624h-68.172l-11.172 24.624c-.456 1.216-1.216 2.28-2.28 3.192-1.064.912-2.508 1.368-4.332 1.368zm180.036-157.776c0-1.216.418-2.204 1.254-2.964.836-.76 1.862-1.14 3.078-1.14h5.7l94.848 100.776h.228v-94.164c0-1.216.418-2.242 1.254-3.078.836-.836 1.862-1.254 3.078-1.254h20.976c1.216 0 2.242.418 3.078 1.254.836.836 1.254 1.862 1.254 3.078v153.444c0 1.216-.418 2.204-1.254 2.964-.836.76-1.862 1.14-3.078 1.14h-5.472l-95.304-104.652h-.228v98.04c0 1.216-.418 2.242-1.254 3.078-.836.836-1.862 1.254-3.078 1.254h-20.748c-1.216 0-2.242-.418-3.078-1.254-.836-.836-1.254-1.862-1.254-3.078zm265.992 103.284l-22.8-50.16h-.684l-22.344 50.16zM969.876 280c-1.672 0-2.926-.608-3.762-1.824-.836-1.216-.874-2.584-.114-4.104l70.908-153.444c.912-1.672 2.204-2.508 3.876-2.508h2.28c1.216 0 2.09.228 2.622.684.532.456.95 1.064 1.254 1.824l70.224 153.444c.76 1.52.722 2.888-.114 4.104-.836 1.216-2.09 1.824-3.762 1.824h-19.836c-1.672 0-3.002-.342-3.99-1.026-.988-.684-1.862-1.862-2.622-3.534l-11.172-24.624h-68.172l-11.172 24.624c-.456 1.216-1.216 2.28-2.28 3.192-1.064.912-2.508 1.368-4.332 1.368zm201.468-132.24h-34.884c-1.216 0-2.242-.418-3.078-1.254-.836-.836-1.254-1.862-1.254-3.078v-18.696c0-1.216.418-2.242 1.254-3.078.836-.836 1.862-1.254 3.078-1.254h99.636c1.216 0 2.242.418 3.078 1.254.836.836 1.254 1.862 1.254 3.078v18.696c0 1.216-.418 2.242-1.254 3.078-.836.836-1.862 1.254-3.078 1.254h-34.884v127.908c0 1.216-.418 2.242-1.254 3.078-.836.836-1.862 1.254-3.078 1.254h-21.204c-1.216 0-2.242-.418-3.078-1.254-.836-.836-1.254-1.862-1.254-3.078zm104.796-23.028c0-1.216.418-2.242 1.254-3.078.836-.836 1.862-1.254 3.078-1.254h21.204c1.216 0 2.242.418 3.078 1.254.836.836 1.254 1.862 1.254 3.078v150.936c0 1.216-.418 2.242-1.254 3.078-.836.836-1.862 1.254-3.078 1.254h-21.204c-1.216 0-2.242-.418-3.078-1.254-.836-.836-1.254-1.862-1.254-3.078zm71.736 75.696c0-11.4 2.166-22.116 6.498-32.148 4.332-10.032 10.184-18.734 17.556-26.106 7.372-7.372 16.074-13.224 26.106-17.556 10.032-4.332 20.748-6.498 32.148-6.498 11.552 0 21.698 1.786 30.438 5.358 8.74 3.572 16.986 8.854 24.738 15.846 2.28 2.128 2.356 4.256.228 6.384l-13.908 14.364c-1.824 1.976-3.724 1.976-5.7 0-4.864-4.256-10.336-7.562-16.416-9.918-6.08-2.356-12.312-3.534-18.696-3.534-7.296 0-14.06 1.406-20.292 4.218-6.232 2.812-11.59 6.65-16.074 11.514-4.484 4.864-8.018 10.526-10.602 16.986-2.584 6.46-3.876 13.262-3.876 20.406 0 7.144 1.292 13.908 3.876 20.292 2.584 6.384 6.156 11.97 10.716 16.758 4.56 4.788 9.956 8.588 16.188 11.4 6.232 2.812 12.996 4.218 20.292 4.218 6.84 0 13.148-1.178 18.924-3.534a62.778 62.778 0 0015.96-9.462c.912-.76 1.9-1.14 2.964-1.14s1.976.38 2.736 1.14l14.136 14.592c.912.76 1.292 1.786 1.14 3.078-.152 1.292-.608 2.318-1.368 3.078-7.752 7.6-16.378 13.186-25.878 16.758-9.5 3.572-19.342 5.358-29.526 5.358-11.4 0-22.116-2.128-32.148-6.384-10.032-4.256-18.734-10.07-26.106-17.442s-13.224-16.036-17.556-25.992c-4.332-9.956-6.498-20.634-6.498-32.034zm257.328 25.08l-22.8-50.16h-.684l-22.344 50.16zM1510.584 280c-1.672 0-2.926-.608-3.762-1.824-.836-1.216-.874-2.584-.114-4.104l70.908-153.444c.912-1.672 2.204-2.508 3.876-2.508h2.28c1.216 0 2.09.228 2.622.684.532.456.95 1.064 1.254 1.824l70.224 153.444c.76 1.52.722 2.888-.114 4.104-.836 1.216-2.09 1.824-3.762 1.824h-19.836c-1.672 0-3.002-.342-3.99-1.026-.988-.684-1.862-1.862-2.622-3.534l-11.172-24.624h-68.172l-11.172 24.624c-.456 1.216-1.216 2.28-2.28 3.192-1.064.912-2.508 1.368-4.332 1.368zm180.036-155.268c0-1.216.418-2.242 1.254-3.078.836-.836 1.862-1.254 3.078-1.254h20.976c1.216 0 2.242.418 3.078 1.254.836.836 1.254 1.862 1.254 3.078V252.64h64.49a3 3 0 012.723 4.258l-9.602 20.78a4 4 0 01-3.63 2.322h-79.289c-1.216 0-2.242-.418-3.078-1.254-.836-.836-1.254-1.862-1.254-3.078z" fill="#444"/></g></svg>