<?xml version="1.0" encoding="utf-8"?>
<!-- Generator: Adobe Illustrator 22.1.0, SVG Export Plug-In . SVG Version: 6.00 Build 0)  -->
<svg version="1.1" id="Layer_1" xmlns="http://www.w3.org/2000/svg" xmlns:xlink="http://www.w3.org/1999/xlink" x="0px" y="0px" width="140px" height="45px"
	 viewBox="0 0 598.6 191.1" style="enable-background:new 0 0 598.6 191.1;" xml:space="preserve">
<style type="text/css">
	.st0{fill:#FFFFFF;}
</style>
<title>2gamelogo</title>
<path class="st0" d="M57.8,157.4c17.8,10.1,41.9,10.4,62,0.1c7.2-3.7,13.4-9.2,18-15.8c2.3-3.2-0.4-4-3.1-4H71.9
	c-3.8,0-5.5-1.1-5.5-4.9v-13.6c0-3-0.3-3.9,2-5.9c6-5.2,19-14.6,27.4-23.8c11.6-12.7,4.9-27.4-14.6-23.8
	c-15.9,3-31.6,11.7-40.6,24.4C24.4,112.9,34.3,144.1,57.8,157.4 M95.5,0c15.9,0,31.6,3.9,45.6,11.5c2.5,1.4,1.8,2.1,0.6,4.1
	c-3.4,5.4-7,11.1-8.9,13.9c-0.7,1.1-1.4,1.7-3.8,1.3c-9.8-1.4-19.1-3.2-28.9-4.6c-6.5-0.9-5.9-1.4-9.6,1.8c-4.4,3.8-9,7.2-12.4,10.5
	c-1.6,1.6-0.3,3.9,2,3.4c48.6-9.6,71.2,35.2,28.9,67.4c-2.8,2.2-1.4,4.2,1.8,4h31.9c4.7,0,6.3,0.7,7.1-3.9l6.7-39.2
	c1.6-9.4,1.1-8.5-2.1-13.5s-8.8-12.6-12.8-18.3c-1.1-1.5-0.9-2.6-0.3-3.4l9.1-14.4c1.3-2.2,1.6-2.2,3.6-0.7
	C177.3,38,191,65.9,191,95.5c0,52.8-42.7,95.6-95.5,95.6h0C42.8,191.1,0,148.3,0,95.5v0C0,42.8,42.8,0,95.5,0L95.5,0"/>
<path class="st0" d="M553.4,84.1H589c1.7,0,2.6-0.9,2.6-2.4V66.1c0-1.6-0.9-2.5-2.6-2.5h-35.6V44h40.4c1.7,0,2.6-0.9,2.6-2.4V25.7
	c0.2-1.3-0.7-2.4-1.9-2.6c-0.2,0-0.4,0-0.6,0h-60.9c-1.3-0.2-2.4,0.7-2.6,1.9c0,0.2,0,0.4,0,0.6v97.6c-0.2,1.2,0.7,2.4,1.9,2.6
	c0.2,0,0.4,0,0.7,0H596c1.3,0.1,2.4-0.8,2.6-2.1c0-0.2,0-0.3,0-0.5v-15.8c0.1-1.3-0.9-2.4-2.2-2.5c-0.1,0-0.3,0-0.4,0h-42.7V84.1z
	 M425.4,125.9c1.2,0.2,2.4-0.7,2.6-1.9c0-0.2,0-0.4,0-0.6v-19c0-13.1-0.6-30.9-1.4-46l0.6-0.2c2.7,6.6,8.5,19.4,13.1,28.9l7.2,14.2
	c0.4,1.2,1.6,2,2.9,1.9H464c1.3,0.1,2.4-0.7,2.9-1.9l7-14.2c4.6-9.5,10.4-22.3,13.1-28.9l0.6,0.2c-0.9,15.1-1.4,32.9-1.4,46v19
	c-0.1,1.3,0.8,2.4,2.1,2.6c0.2,0,0.3,0,0.5,0h17.8c1.6,0,2.4-0.9,2.4-2.6V25.7c0-1.7-0.9-2.6-2.4-2.6h-20.4
	c-1.3-0.1-2.4,0.7-2.8,1.9l-13.1,25c-4.3,8.6-10.5,22.6-12.8,28.3h-0.6c-2.4-5.8-8.5-19.7-12.9-28.3l-12.9-25
	c-0.5-1.2-1.6-1.9-2.9-1.9h-20.4c-1.3-0.2-2.4,0.7-2.6,1.9c0,0.2,0,0.4,0,0.6v97.6c-0.2,1.3,0.7,2.4,2,2.6c0.2,0,0.4,0,0.6,0
	L425.4,125.9z M346.5,48.3h0.6c2.9,9.6,7.3,25.3,11.4,37.9h-23.1C339.1,73.6,343.6,57.9,346.5,48.3 M321,125.9
	c1.3,0,2.5-0.9,2.9-2.2l5.5-17.5h34.9l5.3,17.5c0.4,1.3,1.6,2.2,3,2.2h19.1c1.9,0,2.7-1.2,2-2.9l-33.3-97.9c-0.3-1.2-1.5-2-2.7-2
	h-21.9c-1.2,0-2.3,0.8-2.7,2l-33.3,97.9c-0.6,1.7,0.1,2.9,2,2.9L321,125.9z M291.7,112.8c0.7-0.8,1.1-1.8,1-2.9V68.6
	c0.1-1.2-0.7-2.3-1.9-2.4c-0.2,0-0.3,0-0.5,0h-34.9c-1.2-0.1-2.3,0.7-2.4,1.9c0,0.2,0,0.3,0,0.5v14.1c0,1.7,0.9,2.6,2.4,2.6h15.4
	v16.5c-4.9,2.7-10.4,4.1-15.9,4c-10.9,0-18.1-5.6-18.1-17.1V60.1c0-11.1,6.9-17,17.8-17c8.5,0,16.1,1.9,22.3,5.5
	c1.3,0.9,2.4,0.9,3.4-0.6l9.6-13.8c0.8-1,0.7-2.5-0.3-3.3c-0.1-0.1-0.3-0.2-0.4-0.3c-9.5-5.9-22.3-9.3-34.5-9.3
	c-24.4,0-41.4,13.2-41.4,38.1v30c0,25,17.1,38.4,41.5,38.4C269.7,127.7,283,121.7,291.7,112.8"/>
<path class="st0" d="M232.9,160.8v1.6c0,1.2-0.2,2.5-0.8,3.6c-0.5,1-1.3,1.7-2.3,2.2c-1,0.5-2.1,0.9-3.3,1.1
	c-1.4,0.2-2.8,0.3-4.2,0.3c-2.8,0-5.7-0.3-8.5-0.7v-4.4c2.8,0.5,5.7,0.9,8.5,1c3.2,0,4.8-0.8,4.8-2.5v-1.5c0-0.6-0.2-1.3-0.6-1.8
	c-0.7-0.5-1.6-0.8-2.5-0.7h-2.8c-5.2,0-7.9-2.1-7.9-6.2V151c-0.1-1.9,0.9-3.7,2.6-4.6c1.7-1,4.5-1.5,8.3-1.5c1.8,0,4.3,0.2,7.5,0.5
	v4.3c-3.7-0.4-6.3-0.7-7.6-0.7c-1.3-0.1-2.6,0.1-3.9,0.5c-0.7,0.3-1.1,0.9-1.1,1.6v1.7c0,1.2,1.1,1.9,3.2,1.9h2.9
	c2.8,0,4.8,0.5,6,1.5C232.4,157.4,233,159.1,232.9,160.8z"/>
<path class="st0" d="M258.9,149.4h-7.3v19.8h-5.7v-19.8h-7.4v-4.1h20.4L258.9,149.4z"/>
<path class="st0" d="M286.4,169.1h-5.8l-2.1-6.3h-8.7l-2.1,6.3H262l8.8-23.9h7L286.4,169.1z M277.2,159.1l-3-9h-0.1l-3,9H277.2z"/>
<path class="st0" d="M315.6,169.1h-6.6l-6.2-9.4h-2.6v9.4h-5.8v-23.9H305c3.1,0,5.4,0.4,6.9,1.1c1.4,0.7,2.3,2.3,2.2,3.9v4.2
	c0.1,1.3-0.5,2.6-1.6,3.4c-1.1,0.8-2.5,1.3-3.9,1.5L315.6,169.1z M308.5,153.4v-1.7c0.1-0.7-0.2-1.4-0.8-1.8
	c-0.8-0.4-1.8-0.6-2.7-0.5h-4.9v6.6h4.9c1,0.1,1.9-0.1,2.8-0.5C308.3,154.9,308.6,154.1,308.5,153.4z"/>
<path class="st0" d="M342.7,149.4h-7.3v19.8h-5.7v-19.8h-7.4v-4.1h20.4L342.7,149.4z"/>
<path class="st0" d="M383.6,149.4h-7.3v19.8h-5.7v-19.8h-7.4v-4.1h20.4L383.6,149.4z"/>
<path class="st0" d="M413.8,169.1H408v-10.2h-10.1v10.2h-5.7v-23.9h5.7v9.6H408v-9.6h5.7V169.1z"/>
<path class="st0" d="M442.8,169.1h-18.6v-23.9h18.2v4.1h-12.5v5.5h11.3v4.1h-11.3v6.1h12.8V169.1z"/>
<path class="st0" d="M486.9,168c-1.5,0.5-3.1,0.9-4.7,1.1c-1.7,0.3-3.5,0.4-5.2,0.4c-1.2,0-2.4-0.1-3.6-0.2
	c-1.1-0.1-2.2-0.3-3.2-0.6c-1-0.3-1.9-0.7-2.7-1.2c-0.7-0.5-1.3-1.2-1.7-2c-0.5-0.9-0.7-2-0.7-3v-9.9c0-1.2,0.2-2.3,0.8-3.3
	c0.5-0.9,1.1-1.7,1.9-2.2c0.9-0.6,1.8-1,2.8-1.3c1-0.3,2.1-0.6,3.2-0.7c1.1-0.1,2.1-0.2,3.2-0.2c3.3,0,6.5,0.2,9.7,0.8v4.3
	c-3.2-0.7-6.4-1-9.7-1c-4.1,0-6.2,1.2-6.2,3.6v9.6c-0.1,1.1,0.7,2.2,1.8,2.5c1.6,0.5,3.3,0.8,5,0.7c1.3,0,2.6-0.2,3.9-0.6v-5.5h-3.9
	v-3.8h9.4L486.9,168z"/>
<path class="st0" d="M518.7,169.1h-5.8l-2.1-6.3h-8.7l-2.1,6.3h-5.7l8.8-23.9h7L518.7,169.1z M509.5,159.1l-3-9h-0.1l-3,9H509.5z"/>
<path class="st0" d="M554.2,169.1H549v-17.6h-0.1l-6,17.6h-4.6l-6.2-17.6h-0.1v17.6h-5.3v-23.9h8.2l5.9,17.1l5.8-17.1h7.7
	L554.2,169.1z"/>
<path class="st0" d="M583.1,169.1h-18.6v-23.9h18.2v4.1h-12.5v5.5h11.3v4.1h-11.3v6.1h12.8L583.1,169.1z"/>
<path class="st0" d="M598.3,145.3l-1.6,17h-3.3l-1.6-17H598.3z M598,169.1h-5.7v-5.1h5.7V169.1z"/>
</svg>
